<svg xmlns="http://www.w3.org/2000/svg" width="500" height="100" viewBox="0 0 500 100"><defs><linearGradient id="g" x1="0" y1="0" x2="0" y2="1"><stop offset="0%" stop-color="#3fb950" stop-opacity="0.25"/><stop offset="100%" stop-color="#3fb950" stop-opacity="0.0"/></linearGradient></defs><rect width="500" height="100" fill="#0d1117" rx="4"/><polygon points="4.0,96.0 36.8,91.6 69.6,85.0 102.4,80.0 135.2,75.7 168.0,66.1 200.8,61.2 233.6,53.3 266.4,47.0 299.2,44.9 332.0,35.9 364.8,31.0 397.6,26.1 430.4,15.0 463.2,8.4 496.0,4.0 496.0,96 4.0,96" fill="url(#g)"/><polyline points="4.0,96.0 36.8,91.6 69.6,85.0 102.4,80.0 135.2,75.7 168.0,66.1 200.8,61.2 233.6,53.3 266.4,47.0 299.2,44.9 332.0,35.9 364.8,31.0 397.6,26.1 430.4,15.0 463.2,8.4 496.0,4.0" fill="none" stroke="#3fb950" stroke-width="2" stroke-linejoin="round" stroke-linecap="round"/><circle cx="496.0" cy="4.0" r="3" fill="#3fb950"/></svg>