<svg xmlns="http://www.w3.org/2000/svg" width="500" height="100" viewBox="0 0 500 100"><defs><linearGradient id="g" x1="0" y1="0" x2="0" y2="1"><stop offset="0%" stop-color="#3fb950" stop-opacity="0.25"/><stop offset="100%" stop-color="#3fb950" stop-opacity="0.0"/></linearGradient></defs><rect width="500" height="100" fill="#0d1117" rx="4"/><polygon points="4.0,96.0 24.5,93.1 45.0,88.8 65.5,85.5 86.0,82.7 106.5,76.4 127.0,73.1 147.5,68.0 168.0,63.8 188.5,62.5 209.0,56.6 229.5,53.3 250.0,50.1 270.5,42.9 291.0,38.5 311.5,35.6 332.0,33.7 352.5,30.9 373.0,29.0 393.5,27.2 414.0,20.8 434.5,14.7 455.0,10.9 475.5,5.0 496.0,4.0 496.0,96 4.0,96" fill="url(#g)"/><polyline points="4.0,96.0 24.5,93.1 45.0,88.8 65.5,85.5 86.0,82.7 106.5,76.4 127.0,73.1 147.5,68.0 168.0,63.8 188.5,62.5 209.0,56.6 229.5,53.3 250.0,50.1 270.5,42.9 291.0,38.5 311.5,35.6 332.0,33.7 352.5,30.9 373.0,29.0 393.5,27.2 414.0,20.8 434.5,14.7 455.0,10.9 475.5,5.0 496.0,4.0" fill="none" stroke="#3fb950" stroke-width="2" stroke-linejoin="round" stroke-linecap="round"/><circle cx="496.0" cy="4.0" r="3" fill="#3fb950"/></svg>