<svg xmlns="http://www.w3.org/2000/svg" width="500" height="100" viewBox="0 0 500 100"><defs><linearGradient id="g" x1="0" y1="0" x2="0" y2="1"><stop offset="0%" stop-color="#3fb950" stop-opacity="0.25"/><stop offset="100%" stop-color="#3fb950" stop-opacity="0.0"/></linearGradient></defs><rect width="500" height="100" fill="#0d1117" rx="4"/><polygon points="4.0,96.0 15.2,94.3 26.4,91.7 37.5,89.7 48.7,88.0 59.9,84.2 71.1,82.3 82.3,79.2 93.5,76.7 104.6,75.9 115.8,72.4 127.0,70.4 138.2,68.5 149.4,64.2 160.5,61.5 171.7,59.8 182.9,58.7 194.1,57.0 205.3,55.8 216.5,54.8 227.6,50.9 238.8,47.3 250.0,45.0 261.2,41.4 272.4,39.7 283.5,38.8 294.7,36.5 305.9,33.0 317.1,31.4 328.3,30.0 339.5,27.1 350.6,27.1 361.8,24.7 373.0,23.9 384.2,22.4 395.4,21.2 406.5,19.9 417.7,17.2 428.9,16.1 440.1,15.3 451.3,13.4 462.5,10.4 473.6,8.7 484.8,5.6 496.0,4.0 496.0,96 4.0,96" fill="url(#g)"/><polyline points="4.0,96.0 15.2,94.3 26.4,91.7 37.5,89.7 48.7,88.0 59.9,84.2 71.1,82.3 82.3,79.2 93.5,76.7 104.6,75.9 115.8,72.4 127.0,70.4 138.2,68.5 149.4,64.2 160.5,61.5 171.7,59.8 182.9,58.7 194.1,57.0 205.3,55.8 216.5,54.8 227.6,50.9 238.8,47.3 250.0,45.0 261.2,41.4 272.4,39.7 283.5,38.8 294.7,36.5 305.9,33.0 317.1,31.4 328.3,30.0 339.5,27.1 350.6,27.1 361.8,24.7 373.0,23.9 384.2,22.4 395.4,21.2 406.5,19.9 417.7,17.2 428.9,16.1 440.1,15.3 451.3,13.4 462.5,10.4 473.6,8.7 484.8,5.6 496.0,4.0" fill="none" stroke="#3fb950" stroke-width="2" stroke-linejoin="round" stroke-linecap="round"/><circle cx="496.0" cy="4.0" r="3" fill="#3fb950"/></svg>