<svg xmlns="http://www.w3.org/2000/svg" width="500" height="100" viewBox="0 0 500 100"><defs><linearGradient id="g" x1="0" y1="0" x2="0" y2="1"><stop offset="0%" stop-color="#3fb950" stop-opacity="0.25"/><stop offset="100%" stop-color="#3fb950" stop-opacity="0.0"/></linearGradient></defs><rect width="500" height="100" fill="#0d1117" rx="4"/><polygon points="4.0,96.0 32.9,92.0 61.9,85.8 90.8,81.2 119.8,77.2 148.7,68.3 177.6,63.7 206.6,56.5 235.5,50.5 264.5,48.7 293.4,40.3 322.4,35.7 351.3,31.2 380.2,20.9 409.2,14.8 438.1,10.7 467.1,8.0 496.0,4.0 496.0,96 4.0,96" fill="url(#g)"/><polyline points="4.0,96.0 32.9,92.0 61.9,85.8 90.8,81.2 119.8,77.2 148.7,68.3 177.6,63.7 206.6,56.5 235.5,50.5 264.5,48.7 293.4,40.3 322.4,35.7 351.3,31.2 380.2,20.9 409.2,14.8 438.1,10.7 467.1,8.0 496.0,4.0" fill="none" stroke="#3fb950" stroke-width="2" stroke-linejoin="round" stroke-linecap="round"/><circle cx="496.0" cy="4.0" r="3" fill="#3fb950"/></svg>