<svg xmlns="http://www.w3.org/2000/svg" width="500" height="100" viewBox="0 0 500 100"><defs><linearGradient id="g" x1="0" y1="0" x2="0" y2="1"><stop offset="0%" stop-color="#3fb950" stop-opacity="0.25"/><stop offset="100%" stop-color="#3fb950" stop-opacity="0.0"/></linearGradient></defs><rect width="500" height="100" fill="#0d1117" rx="4"/><polygon points="4.0,96.0 12.3,94.1 20.7,93.5 29.0,90.9 37.4,90.2 45.7,87.9 54.0,85.7 62.4,80.6 70.7,79.7 79.1,77.1 87.4,75.3 95.7,73.5 104.1,71.5 112.4,69.5 120.7,67.8 129.1,65.6 137.4,61.8 145.8,60.0 154.1,58.6 162.4,56.9 170.8,54.6 179.1,52.2 187.5,51.4 195.8,49.9 204.1,48.9 212.5,47.5 220.8,45.4 229.2,45.0 237.5,43.3 245.8,41.4 254.2,41.0 262.5,39.6 270.8,38.6 279.2,37.6 287.5,36.1 295.9,35.1 304.2,34.0 312.5,33.3 320.9,31.1 329.2,29.4 337.6,26.8 345.9,25.8 354.2,23.2 362.6,21.9 370.9,21.4 379.3,19.3 387.6,19.0 395.9,16.4 404.3,16.0 412.6,14.1 420.9,13.2 429.3,11.9 437.6,10.4 446.0,9.0 454.3,8.6 462.6,8.4 471.0,6.6 479.3,5.9 487.7,5.4 496.0,4.0 496.0,96 4.0,96" fill="url(#g)"/><polyline points="4.0,96.0 12.3,94.1 20.7,93.5 29.0,90.9 37.4,90.2 45.7,87.9 54.0,85.7 62.4,80.6 70.7,79.7 79.1,77.1 87.4,75.3 95.7,73.5 104.1,71.5 112.4,69.5 120.7,67.8 129.1,65.6 137.4,61.8 145.8,60.0 154.1,58.6 162.4,56.9 170.8,54.6 179.1,52.2 187.5,51.4 195.8,49.9 204.1,48.9 212.5,47.5 220.8,45.4 229.2,45.0 237.5,43.3 245.8,41.4 254.2,41.0 262.5,39.6 270.8,38.6 279.2,37.6 287.5,36.1 295.9,35.1 304.2,34.0 312.5,33.3 320.9,31.1 329.2,29.4 337.6,26.8 345.9,25.8 354.2,23.2 362.6,21.9 370.9,21.4 379.3,19.3 387.6,19.0 395.9,16.4 404.3,16.0 412.6,14.1 420.9,13.2 429.3,11.9 437.6,10.4 446.0,9.0 454.3,8.6 462.6,8.4 471.0,6.6 479.3,5.9 487.7,5.4 496.0,4.0" fill="none" stroke="#3fb950" stroke-width="2" stroke-linejoin="round" stroke-linecap="round"/><circle cx="496.0" cy="4.0" r="3" fill="#3fb950"/></svg>