<svg xmlns="http://www.w3.org/2000/svg" width="500" height="100" viewBox="0 0 500 100"><defs><linearGradient id="g" x1="0" y1="0" x2="0" y2="1"><stop offset="0%" stop-color="#3fb950" stop-opacity="0.25"/><stop offset="100%" stop-color="#3fb950" stop-opacity="0.0"/></linearGradient></defs><rect width="500" height="100" fill="#0d1117" rx="4"/><polygon points="4.0,96.0 34.8,91.8 65.5,85.2 96.2,80.4 127.0,76.2 157.8,66.8 188.5,62.0 219.2,54.4 250.0,48.2 280.8,46.2 311.5,37.4 342.2,32.6 373.0,27.8 403.8,17.0 434.5,10.5 465.2,6.3 496.0,4.0 496.0,96 4.0,96" fill="url(#g)"/><polyline points="4.0,96.0 34.8,91.8 65.5,85.2 96.2,80.4 127.0,76.2 157.8,66.8 188.5,62.0 219.2,54.4 250.0,48.2 280.8,46.2 311.5,37.4 342.2,32.6 373.0,27.8 403.8,17.0 434.5,10.5 465.2,6.3 496.0,4.0" fill="none" stroke="#3fb950" stroke-width="2" stroke-linejoin="round" stroke-linecap="round"/><circle cx="496.0" cy="4.0" r="3" fill="#3fb950"/></svg>