<svg xmlns="http://www.w3.org/2000/svg" width="500" height="100" viewBox="0 0 500 100"><defs><linearGradient id="g" x1="0" y1="0" x2="0" y2="1"><stop offset="0%" stop-color="#3fb950" stop-opacity="0.25"/><stop offset="100%" stop-color="#3fb950" stop-opacity="0.0"/></linearGradient></defs><rect width="500" height="100" fill="#0d1117" rx="4"/><polygon points="4.0,96.0 25.4,93.1 46.8,88.5 68.2,85.2 89.6,82.2 111.0,75.8 132.3,72.4 153.7,67.1 175.1,62.8 196.5,61.4 217.9,55.3 239.3,52.0 260.7,48.6 282.1,41.2 303.5,36.6 324.9,33.7 346.3,31.7 367.7,28.8 389.0,26.8 410.4,25.0 431.8,18.4 453.2,12.1 474.6,8.1 496.0,4.0 496.0,96 4.0,96" fill="url(#g)"/><polyline points="4.0,96.0 25.4,93.1 46.8,88.5 68.2,85.2 89.6,82.2 111.0,75.8 132.3,72.4 153.7,67.1 175.1,62.8 196.5,61.4 217.9,55.3 239.3,52.0 260.7,48.6 282.1,41.2 303.5,36.6 324.9,33.7 346.3,31.7 367.7,28.8 389.0,26.8 410.4,25.0 431.8,18.4 453.2,12.1 474.6,8.1 496.0,4.0" fill="none" stroke="#3fb950" stroke-width="2" stroke-linejoin="round" stroke-linecap="round"/><circle cx="496.0" cy="4.0" r="3" fill="#3fb950"/></svg>