<svg xmlns="http://www.w3.org/2000/svg" width="500" height="100" viewBox="0 0 500 100"><defs><linearGradient id="g" x1="0" y1="0" x2="0" y2="1"><stop offset="0%" stop-color="#3fb950" stop-opacity="0.25"/><stop offset="100%" stop-color="#3fb950" stop-opacity="0.0"/></linearGradient></defs><rect width="500" height="100" fill="#0d1117" rx="4"/><polygon points="4.0,96.0 39.1,91.4 74.3,84.4 109.4,79.2 144.6,74.7 179.7,64.6 214.9,59.4 250.0,51.2 285.1,44.5 320.3,42.4 355.4,32.9 390.6,27.8 425.7,22.6 460.9,11.0 496.0,4.0 496.0,96 4.0,96" fill="url(#g)"/><polyline points="4.0,96.0 39.1,91.4 74.3,84.4 109.4,79.2 144.6,74.7 179.7,64.6 214.9,59.4 250.0,51.2 285.1,44.5 320.3,42.4 355.4,32.9 390.6,27.8 425.7,22.6 460.9,11.0 496.0,4.0" fill="none" stroke="#3fb950" stroke-width="2" stroke-linejoin="round" stroke-linecap="round"/><circle cx="496.0" cy="4.0" r="3" fill="#3fb950"/></svg>