<svg xmlns="http://www.w3.org/2000/svg" width="500" height="100" viewBox="0 0 500 100"><defs><linearGradient id="g" x1="0" y1="0" x2="0" y2="1"><stop offset="0%" stop-color="#3fb950" stop-opacity="0.25"/><stop offset="100%" stop-color="#3fb950" stop-opacity="0.0"/></linearGradient></defs><rect width="500" height="100" fill="#0d1117" rx="4"/><polygon points="4.0,96.0 18.1,93.9 32.1,90.6 46.2,88.2 60.2,86.0 74.3,81.3 88.3,78.9 102.4,75.0 116.5,71.9 130.5,70.9 144.6,66.5 158.6,64.0 172.7,61.6 186.7,56.2 200.8,52.9 214.9,50.8 228.9,49.4 243.0,47.2 257.0,45.8 271.1,44.5 285.1,39.7 299.2,35.1 313.3,32.2 327.3,27.8 341.4,25.7 355.4,24.5 369.5,21.7 383.5,17.3 397.6,15.3 411.7,13.6 425.7,9.8 439.8,9.8 453.8,6.9 467.9,5.9 481.9,4.0 496.0,4.0 496.0,96 4.0,96" fill="url(#g)"/><polyline points="4.0,96.0 18.1,93.9 32.1,90.6 46.2,88.2 60.2,86.0 74.3,81.3 88.3,78.9 102.4,75.0 116.5,71.9 130.5,70.9 144.6,66.5 158.6,64.0 172.7,61.6 186.7,56.2 200.8,52.9 214.9,50.8 228.9,49.4 243.0,47.2 257.0,45.8 271.1,44.5 285.1,39.7 299.2,35.1 313.3,32.2 327.3,27.8 341.4,25.7 355.4,24.5 369.5,21.7 383.5,17.3 397.6,15.3 411.7,13.6 425.7,9.8 439.8,9.8 453.8,6.9 467.9,5.9 481.9,4.0 496.0,4.0" fill="none" stroke="#3fb950" stroke-width="2" stroke-linejoin="round" stroke-linecap="round"/><circle cx="496.0" cy="4.0" r="3" fill="#3fb950"/></svg>