<svg xmlns="http://www.w3.org/2000/svg" width="500" height="100" viewBox="0 0 500 100"><defs><linearGradient id="g" x1="0" y1="0" x2="0" y2="1"><stop offset="0%" stop-color="#3fb950" stop-opacity="0.25"/><stop offset="100%" stop-color="#3fb950" stop-opacity="0.0"/></linearGradient></defs><rect width="500" height="100" fill="#0d1117" rx="4"/><polygon points="4.0,96.0 26.4,92.8 48.7,87.9 71.1,84.2 93.5,81.0 115.8,74.0 138.2,70.3 160.5,64.5 182.9,59.8 205.3,58.3 227.6,51.7 250.0,48.1 272.4,44.4 294.7,36.3 317.1,31.4 339.5,28.2 361.8,26.0 384.2,22.8 406.5,20.7 428.9,18.8 451.3,11.5 473.6,4.6 496.0,4.0 496.0,96 4.0,96" fill="url(#g)"/><polyline points="4.0,96.0 26.4,92.8 48.7,87.9 71.1,84.2 93.5,81.0 115.8,74.0 138.2,70.3 160.5,64.5 182.9,59.8 205.3,58.3 227.6,51.7 250.0,48.1 272.4,44.4 294.7,36.3 317.1,31.4 339.5,28.2 361.8,26.0 384.2,22.8 406.5,20.7 428.9,18.8 451.3,11.5 473.6,4.6 496.0,4.0" fill="none" stroke="#3fb950" stroke-width="2" stroke-linejoin="round" stroke-linecap="round"/><circle cx="496.0" cy="4.0" r="3" fill="#3fb950"/></svg>