<svg xmlns="http://www.w3.org/2000/svg" width="500" height="100" viewBox="0 0 500 100"><defs><linearGradient id="g" x1="0" y1="0" x2="0" y2="1"><stop offset="0%" stop-color="#3fb950" stop-opacity="0.25"/><stop offset="100%" stop-color="#3fb950" stop-opacity="0.0"/></linearGradient></defs><rect width="500" height="100" fill="#0d1117" rx="4"/><polygon points="4.0,96.0 34.8,91.8 65.5,85.3 96.2,80.5 127.0,76.3 157.8,67.0 188.5,62.2 219.2,54.6 250.0,48.5 280.8,46.5 311.5,37.8 342.2,33.0 373.0,28.2 403.8,17.5 434.5,11.0 465.2,6.8 496.0,4.0 496.0,96 4.0,96" fill="url(#g)"/><polyline points="4.0,96.0 34.8,91.8 65.5,85.3 96.2,80.5 127.0,76.3 157.8,67.0 188.5,62.2 219.2,54.6 250.0,48.5 280.8,46.5 311.5,37.8 342.2,33.0 373.0,28.2 403.8,17.5 434.5,11.0 465.2,6.8 496.0,4.0" fill="none" stroke="#3fb950" stroke-width="2" stroke-linejoin="round" stroke-linecap="round"/><circle cx="496.0" cy="4.0" r="3" fill="#3fb950"/></svg>