<svg xmlns="http://www.w3.org/2000/svg" width="500" height="100" viewBox="0 0 500 100"><defs><linearGradient id="g" x1="0" y1="0" x2="0" y2="1"><stop offset="0%" stop-color="#3fb950" stop-opacity="0.25"/><stop offset="100%" stop-color="#3fb950" stop-opacity="0.0"/></linearGradient></defs><rect width="500" height="100" fill="#0d1117" rx="4"/><polygon points="4.0,96.0 53.2,89.3 102.4,79.1 151.6,71.6 200.8,64.9 250.0,50.2 299.2,42.7 348.4,30.7 397.6,20.9 446.8,17.8 496.0,4.0 496.0,96 4.0,96" fill="url(#g)"/><polyline points="4.0,96.0 53.2,89.3 102.4,79.1 151.6,71.6 200.8,64.9 250.0,50.2 299.2,42.7 348.4,30.7 397.6,20.9 446.8,17.8 496.0,4.0" fill="none" stroke="#3fb950" stroke-width="2" stroke-linejoin="round" stroke-linecap="round"/><circle cx="496.0" cy="4.0" r="3" fill="#3fb950"/></svg>