<svg xmlns="http://www.w3.org/2000/svg" width="500" height="100" viewBox="0 0 500 100"><defs><linearGradient id="g" x1="0" y1="0" x2="0" y2="1"><stop offset="0%" stop-color="#3fb950" stop-opacity="0.25"/><stop offset="100%" stop-color="#3fb950" stop-opacity="0.0"/></linearGradient></defs><rect width="500" height="100" fill="#0d1117" rx="4"/><polygon points="4.0,96.0 27.4,92.8 50.9,87.8 74.3,84.1 97.7,80.9 121.1,73.8 144.6,70.1 168.0,64.3 191.4,59.6 214.9,58.1 238.3,51.4 261.7,47.7 285.1,44.1 308.6,35.9 332.0,30.9 355.4,27.7 378.9,25.5 402.3,22.3 425.7,20.2 449.1,18.2 472.6,10.9 496.0,4.0 496.0,96 4.0,96" fill="url(#g)"/><polyline points="4.0,96.0 27.4,92.8 50.9,87.8 74.3,84.1 97.7,80.9 121.1,73.8 144.6,70.1 168.0,64.3 191.4,59.6 214.9,58.1 238.3,51.4 261.7,47.7 285.1,44.1 308.6,35.9 332.0,30.9 355.4,27.7 378.9,25.5 402.3,22.3 425.7,20.2 449.1,18.2 472.6,10.9 496.0,4.0" fill="none" stroke="#3fb950" stroke-width="2" stroke-linejoin="round" stroke-linecap="round"/><circle cx="496.0" cy="4.0" r="3" fill="#3fb950"/></svg>