<svg xmlns="http://www.w3.org/2000/svg" width="500" height="100" viewBox="0 0 500 100"><defs><linearGradient id="g" x1="0" y1="0" x2="0" y2="1"><stop offset="0%" stop-color="#3fb950" stop-opacity="0.25"/><stop offset="100%" stop-color="#3fb950" stop-opacity="0.0"/></linearGradient></defs><rect width="500" height="100" fill="#0d1117" rx="4"/><polygon points="4.0,96.0 48.7,89.7 93.5,80.0 138.2,72.9 182.9,66.6 227.6,52.7 272.4,45.6 317.1,34.2 361.8,25.0 406.5,22.1 451.3,9.0 496.0,4.0 496.0,96 4.0,96" fill="url(#g)"/><polyline points="4.0,96.0 48.7,89.7 93.5,80.0 138.2,72.9 182.9,66.6 227.6,52.7 272.4,45.6 317.1,34.2 361.8,25.0 406.5,22.1 451.3,9.0 496.0,4.0" fill="none" stroke="#3fb950" stroke-width="2" stroke-linejoin="round" stroke-linecap="round"/><circle cx="496.0" cy="4.0" r="3" fill="#3fb950"/></svg>