<svg xmlns="http://www.w3.org/2000/svg" width="500" height="100" viewBox="0 0 500 100"><defs><linearGradient id="g" x1="0" y1="0" x2="0" y2="1"><stop offset="0%" stop-color="#3fb950" stop-opacity="0.25"/><stop offset="100%" stop-color="#3fb950" stop-opacity="0.0"/></linearGradient></defs><rect width="500" height="100" fill="#0d1117" rx="4"/><polygon points="4.0,96.0 26.4,92.9 48.7,88.2 71.1,84.7 93.5,81.6 115.8,74.8 138.2,71.3 160.5,65.7 182.9,61.2 205.3,59.8 227.6,53.4 250.0,49.9 272.4,46.4 294.7,38.6 317.1,33.8 339.5,30.8 361.8,28.7 384.2,25.6 406.5,23.6 428.9,21.7 451.3,14.7 473.6,8.1 496.0,4.0 496.0,96 4.0,96" fill="url(#g)"/><polyline points="4.0,96.0 26.4,92.9 48.7,88.2 71.1,84.7 93.5,81.6 115.8,74.8 138.2,71.3 160.5,65.7 182.9,61.2 205.3,59.8 227.6,53.4 250.0,49.9 272.4,46.4 294.7,38.6 317.1,33.8 339.5,30.8 361.8,28.7 384.2,25.6 406.5,23.6 428.9,21.7 451.3,14.7 473.6,8.1 496.0,4.0" fill="none" stroke="#3fb950" stroke-width="2" stroke-linejoin="round" stroke-linecap="round"/><circle cx="496.0" cy="4.0" r="3" fill="#3fb950"/></svg>