<svg xmlns="http://www.w3.org/2000/svg" width="500" height="100" viewBox="0 0 500 100"><defs><linearGradient id="g" x1="0" y1="0" x2="0" y2="1"><stop offset="0%" stop-color="#3fb950" stop-opacity="0.25"/><stop offset="100%" stop-color="#3fb950" stop-opacity="0.0"/></linearGradient></defs><rect width="500" height="100" fill="#0d1117" rx="4"/><polygon points="4.0,96.0 28.6,92.4 53.2,87.0 77.8,83.0 102.4,79.4 127.0,71.6 151.6,67.5 176.2,61.1 200.8,55.9 225.4,54.3 250.0,46.9 274.6,42.9 299.2,38.9 323.8,29.8 348.4,24.4 373.0,20.8 397.6,18.5 422.2,14.9 446.8,12.5 471.4,10.4 496.0,4.0 496.0,96 4.0,96" fill="url(#g)"/><polyline points="4.0,96.0 28.6,92.4 53.2,87.0 77.8,83.0 102.4,79.4 127.0,71.6 151.6,67.5 176.2,61.1 200.8,55.9 225.4,54.3 250.0,46.9 274.6,42.9 299.2,38.9 323.8,29.8 348.4,24.4 373.0,20.8 397.6,18.5 422.2,14.9 446.8,12.5 471.4,10.4 496.0,4.0" fill="none" stroke="#3fb950" stroke-width="2" stroke-linejoin="round" stroke-linecap="round"/><circle cx="496.0" cy="4.0" r="3" fill="#3fb950"/></svg>