<svg xmlns="http://www.w3.org/2000/svg" width="500" height="100" viewBox="0 0 500 100"><defs><linearGradient id="g" x1="0" y1="0" x2="0" y2="1"><stop offset="0%" stop-color="#3fb950" stop-opacity="0.25"/><stop offset="100%" stop-color="#3fb950" stop-opacity="0.0"/></linearGradient></defs><rect width="500" height="100" fill="#0d1117" rx="4"/><polygon points="4.0,96.0 29.9,92.2 55.8,86.3 81.7,82.0 107.6,78.2 133.5,69.8 159.4,65.4 185.3,58.5 211.2,52.9 237.1,51.1 262.9,43.2 288.8,38.9 314.7,34.6 340.6,24.9 366.5,19.0 392.4,15.2 418.3,12.7 444.2,8.8 470.1,6.3 496.0,4.0 496.0,96 4.0,96" fill="url(#g)"/><polyline points="4.0,96.0 29.9,92.2 55.8,86.3 81.7,82.0 107.6,78.2 133.5,69.8 159.4,65.4 185.3,58.5 211.2,52.9 237.1,51.1 262.9,43.2 288.8,38.9 314.7,34.6 340.6,24.9 366.5,19.0 392.4,15.2 418.3,12.7 444.2,8.8 470.1,6.3 496.0,4.0" fill="none" stroke="#3fb950" stroke-width="2" stroke-linejoin="round" stroke-linecap="round"/><circle cx="496.0" cy="4.0" r="3" fill="#3fb950"/></svg>