<svg xmlns="http://www.w3.org/2000/svg" width="500" height="100" viewBox="0 0 500 100"><defs><linearGradient id="g" x1="0" y1="0" x2="0" y2="1"><stop offset="0%" stop-color="#3fb950" stop-opacity="0.25"/><stop offset="100%" stop-color="#3fb950" stop-opacity="0.0"/></linearGradient></defs><rect width="500" height="100" fill="#0d1117" rx="4"/><polygon points="4.0,96.0 12.3,95.1 20.7,92.9 29.0,89.6 37.4,87.7 45.7,84.3 54.0,82.5 62.4,82.0 70.7,79.5 79.1,78.9 87.4,76.9 95.7,74.8 104.1,70.1 112.4,69.3 120.7,66.9 129.1,65.2 137.4,63.6 145.8,61.8 154.1,59.9 162.4,58.4 170.8,56.3 179.1,52.9 187.5,51.2 195.8,49.9 204.1,48.4 212.5,46.2 220.8,44.1 229.2,43.3 237.5,41.9 245.8,41.0 254.2,39.7 262.5,37.8 270.8,37.4 279.2,35.9 287.5,34.1 295.9,33.7 304.2,32.5 312.5,31.6 320.9,30.7 329.2,29.3 337.6,28.4 345.9,27.4 354.2,26.7 362.6,24.7 370.9,23.1 379.3,20.7 387.6,19.8 395.9,17.4 404.3,16.2 412.6,15.7 420.9,13.8 429.3,13.6 437.6,11.1 446.0,10.8 454.3,9.1 462.6,8.2 471.0,7.1 479.3,5.7 487.7,4.4 496.0,4.0 496.0,96 4.0,96" fill="url(#g)"/><polyline points="4.0,96.0 12.3,95.1 20.7,92.9 29.0,89.6 37.4,87.7 45.7,84.3 54.0,82.5 62.4,82.0 70.7,79.5 79.1,78.9 87.4,76.9 95.7,74.8 104.1,70.1 112.4,69.3 120.7,66.9 129.1,65.2 137.4,63.6 145.8,61.8 154.1,59.9 162.4,58.4 170.8,56.3 179.1,52.9 187.5,51.2 195.8,49.9 204.1,48.4 212.5,46.2 220.8,44.1 229.2,43.3 237.5,41.9 245.8,41.0 254.2,39.7 262.5,37.8 270.8,37.4 279.2,35.9 287.5,34.1 295.9,33.7 304.2,32.5 312.5,31.6 320.9,30.7 329.2,29.3 337.6,28.4 345.9,27.4 354.2,26.7 362.6,24.7 370.9,23.1 379.3,20.7 387.6,19.8 395.9,17.4 404.3,16.2 412.6,15.7 420.9,13.8 429.3,13.6 437.6,11.1 446.0,10.8 454.3,9.1 462.6,8.2 471.0,7.1 479.3,5.7 487.7,4.4 496.0,4.0" fill="none" stroke="#3fb950" stroke-width="2" stroke-linejoin="round" stroke-linecap="round"/><circle cx="496.0" cy="4.0" r="3" fill="#3fb950"/></svg>