<svg xmlns="http://www.w3.org/2000/svg" width="500" height="100" viewBox="0 0 500 100"><defs><linearGradient id="g" x1="0" y1="0" x2="0" y2="1"><stop offset="0%" stop-color="#3fb950" stop-opacity="0.25"/><stop offset="100%" stop-color="#3fb950" stop-opacity="0.0"/></linearGradient></defs><rect width="500" height="100" fill="#0d1117" rx="4"/><polygon points="4.0,96.0 27.4,92.6 50.9,87.5 74.3,83.7 97.7,80.3 121.1,72.9 144.6,69.1 168.0,63.1 191.4,58.2 214.9,56.6 238.3,49.7 261.7,45.9 285.1,42.1 308.6,33.5 332.0,28.4 355.4,25.0 378.9,22.8 402.3,19.4 425.7,17.2 449.1,15.2 472.6,7.6 496.0,4.0 496.0,96 4.0,96" fill="url(#g)"/><polyline points="4.0,96.0 27.4,92.6 50.9,87.5 74.3,83.7 97.7,80.3 121.1,72.9 144.6,69.1 168.0,63.1 191.4,58.2 214.9,56.6 238.3,49.7 261.7,45.9 285.1,42.1 308.6,33.5 332.0,28.4 355.4,25.0 378.9,22.8 402.3,19.4 425.7,17.2 449.1,15.2 472.6,7.6 496.0,4.0" fill="none" stroke="#3fb950" stroke-width="2" stroke-linejoin="round" stroke-linecap="round"/><circle cx="496.0" cy="4.0" r="3" fill="#3fb950"/></svg>