<svg xmlns="http://www.w3.org/2000/svg" width="500" height="100" viewBox="0 0 500 100"><defs><linearGradient id="g" x1="0" y1="0" x2="0" y2="1"><stop offset="0%" stop-color="#3fb950" stop-opacity="0.25"/><stop offset="100%" stop-color="#3fb950" stop-opacity="0.0"/></linearGradient></defs><rect width="500" height="100" fill="#0d1117" rx="4"/><polygon points="4.0,96.0 31.3,92.1 58.7,86.1 86.0,81.6 113.3,77.7 140.7,69.1 168.0,64.6 195.3,57.6 222.7,51.8 250.0,50.0 277.3,41.9 304.7,37.5 332.0,33.0 359.3,23.1 386.7,17.1 414.0,13.1 441.3,10.5 468.7,6.6 496.0,4.0 496.0,96 4.0,96" fill="url(#g)"/><polyline points="4.0,96.0 31.3,92.1 58.7,86.1 86.0,81.6 113.3,77.7 140.7,69.1 168.0,64.6 195.3,57.6 222.7,51.8 250.0,50.0 277.3,41.9 304.7,37.5 332.0,33.0 359.3,23.1 386.7,17.1 414.0,13.1 441.3,10.5 468.7,6.6 496.0,4.0" fill="none" stroke="#3fb950" stroke-width="2" stroke-linejoin="round" stroke-linecap="round"/><circle cx="496.0" cy="4.0" r="3" fill="#3fb950"/></svg>