<svg xmlns="http://www.w3.org/2000/svg" width="500" height="100" viewBox="0 0 500 100"><defs><linearGradient id="g" x1="0" y1="0" x2="0" y2="1"><stop offset="0%" stop-color="#3fb950" stop-opacity="0.25"/><stop offset="100%" stop-color="#3fb950" stop-opacity="0.0"/></linearGradient></defs><rect width="500" height="100" fill="#0d1117" rx="4"/><polygon points="4.0,96.0 39.1,91.1 74.3,83.5 109.4,77.9 144.6,72.9 179.7,62.0 214.9,56.4 250.0,47.5 285.1,40.3 320.3,38.0 355.4,27.7 390.6,22.1 425.7,16.5 460.9,4.0 496.0,4.0 496.0,96 4.0,96" fill="url(#g)"/><polyline points="4.0,96.0 39.1,91.1 74.3,83.5 109.4,77.9 144.6,72.9 179.7,62.0 214.9,56.4 250.0,47.5 285.1,40.3 320.3,38.0 355.4,27.7 390.6,22.1 425.7,16.5 460.9,4.0 496.0,4.0" fill="none" stroke="#3fb950" stroke-width="2" stroke-linejoin="round" stroke-linecap="round"/><circle cx="496.0" cy="4.0" r="3" fill="#3fb950"/></svg>