<svg xmlns="http://www.w3.org/2000/svg" width="500" height="100" viewBox="0 0 500 100"><defs><linearGradient id="g" x1="0" y1="0" x2="0" y2="1"><stop offset="0%" stop-color="#3fb950" stop-opacity="0.25"/><stop offset="100%" stop-color="#3fb950" stop-opacity="0.0"/></linearGradient></defs><rect width="500" height="100" fill="#0d1117" rx="4"/><polygon points="4.0,96.0 12.3,95.4 20.7,92.8 29.0,92.1 37.4,89.8 45.7,87.6 54.0,82.4 62.4,81.5 70.7,78.8 79.1,77.0 87.4,75.2 95.7,73.2 104.1,71.1 112.4,69.4 120.7,67.2 129.1,63.4 137.4,61.5 145.8,60.1 154.1,58.4 162.4,56.0 170.8,53.7 179.1,52.8 187.5,51.3 195.8,50.3 204.1,48.9 212.5,46.8 220.8,46.3 229.2,44.7 237.5,42.7 245.8,42.3 254.2,40.9 262.5,39.9 270.8,38.9 279.2,37.3 287.5,36.4 295.9,35.2 304.2,34.5 312.5,32.3 320.9,30.6 329.2,27.9 337.6,26.9 345.9,24.3 354.2,23.0 362.6,22.4 370.9,20.3 379.3,20.0 387.6,17.4 395.9,16.9 404.3,15.1 412.6,14.1 420.9,12.9 429.3,11.3 437.6,9.9 446.0,9.5 454.3,9.3 462.6,7.5 471.0,6.8 479.3,6.3 487.7,4.8 496.0,4.0 496.0,96 4.0,96" fill="url(#g)"/><polyline points="4.0,96.0 12.3,95.4 20.7,92.8 29.0,92.1 37.4,89.8 45.7,87.6 54.0,82.4 62.4,81.5 70.7,78.8 79.1,77.0 87.4,75.2 95.7,73.2 104.1,71.1 112.4,69.4 120.7,67.2 129.1,63.4 137.4,61.5 145.8,60.1 154.1,58.4 162.4,56.0 170.8,53.7 179.1,52.8 187.5,51.3 195.8,50.3 204.1,48.9 212.5,46.8 220.8,46.3 229.2,44.7 237.5,42.7 245.8,42.3 254.2,40.9 262.5,39.9 270.8,38.9 279.2,37.3 287.5,36.4 295.9,35.2 304.2,34.5 312.5,32.3 320.9,30.6 329.2,27.9 337.6,26.9 345.9,24.3 354.2,23.0 362.6,22.4 370.9,20.3 379.3,20.0 387.6,17.4 395.9,16.9 404.3,15.1 412.6,14.1 420.9,12.9 429.3,11.3 437.6,9.9 446.0,9.5 454.3,9.3 462.6,7.5 471.0,6.8 479.3,6.3 487.7,4.8 496.0,4.0" fill="none" stroke="#3fb950" stroke-width="2" stroke-linejoin="round" stroke-linecap="round"/><circle cx="496.0" cy="4.0" r="3" fill="#3fb950"/></svg>