<svg xmlns="http://www.w3.org/2000/svg" width="500" height="100" viewBox="0 0 500 100"><defs><linearGradient id="g" x1="0" y1="0" x2="0" y2="1"><stop offset="0%" stop-color="#3fb950" stop-opacity="0.25"/><stop offset="100%" stop-color="#3fb950" stop-opacity="0.0"/></linearGradient></defs><rect width="500" height="100" fill="#0d1117" rx="4"/><polygon points="4.0,96.0 28.6,92.5 53.2,87.1 77.8,83.2 102.4,79.7 127.0,72.0 151.6,68.1 176.2,61.8 200.8,56.6 225.4,55.0 250.0,47.8 274.6,43.8 299.2,39.9 323.8,31.0 348.4,25.7 373.0,22.2 397.6,19.8 422.2,16.3 446.8,14.0 471.4,11.9 496.0,4.0 496.0,96 4.0,96" fill="url(#g)"/><polyline points="4.0,96.0 28.6,92.5 53.2,87.1 77.8,83.2 102.4,79.7 127.0,72.0 151.6,68.1 176.2,61.8 200.8,56.6 225.4,55.0 250.0,47.8 274.6,43.8 299.2,39.9 323.8,31.0 348.4,25.7 373.0,22.2 397.6,19.8 422.2,16.3 446.8,14.0 471.4,11.9 496.0,4.0" fill="none" stroke="#3fb950" stroke-width="2" stroke-linejoin="round" stroke-linecap="round"/><circle cx="496.0" cy="4.0" r="3" fill="#3fb950"/></svg>