<svg xmlns="http://www.w3.org/2000/svg" width="500" height="100" viewBox="0 0 500 100"><defs><linearGradient id="g" x1="0" y1="0" x2="0" y2="1"><stop offset="0%" stop-color="#3fb950" stop-opacity="0.25"/><stop offset="100%" stop-color="#3fb950" stop-opacity="0.0"/></linearGradient></defs><rect width="500" height="100" fill="#0d1117" rx="4"/><polygon points="4.0,96.0 24.5,93.2 45.0,88.9 65.5,85.7 86.0,82.9 106.5,76.8 127.0,73.6 147.5,68.6 168.0,64.5 188.5,63.2 209.0,57.4 229.5,54.2 250.0,51.0 270.5,43.9 291.0,39.6 311.5,36.8 332.0,35.0 352.5,32.2 373.0,30.3 393.5,28.6 414.0,22.3 434.5,16.3 455.0,12.6 475.5,6.8 496.0,4.0 496.0,96 4.0,96" fill="url(#g)"/><polyline points="4.0,96.0 24.5,93.2 45.0,88.9 65.5,85.7 86.0,82.9 106.5,76.8 127.0,73.6 147.5,68.6 168.0,64.5 188.5,63.2 209.0,57.4 229.5,54.2 250.0,51.0 270.5,43.9 291.0,39.6 311.5,36.8 332.0,35.0 352.5,32.2 373.0,30.3 393.5,28.6 414.0,22.3 434.5,16.3 455.0,12.6 475.5,6.8 496.0,4.0" fill="none" stroke="#3fb950" stroke-width="2" stroke-linejoin="round" stroke-linecap="round"/><circle cx="496.0" cy="4.0" r="3" fill="#3fb950"/></svg>