<svg xmlns="http://www.w3.org/2000/svg" width="500" height="100" viewBox="0 0 500 100"><defs><linearGradient id="g" x1="0" y1="0" x2="0" y2="1"><stop offset="0%" stop-color="#3fb950" stop-opacity="0.25"/><stop offset="100%" stop-color="#3fb950" stop-opacity="0.0"/></linearGradient></defs><rect width="500" height="100" fill="#0d1117" rx="4"/><polygon points="4.0,96.0 32.9,91.8 61.9,85.3 90.8,80.5 119.8,76.3 148.7,67.0 177.6,62.2 206.6,54.6 235.5,48.5 264.5,46.5 293.4,37.8 322.4,33.0 351.3,28.2 380.2,17.5 409.2,11.0 438.1,6.8 467.1,4.0 496.0,4.0 496.0,96 4.0,96" fill="url(#g)"/><polyline points="4.0,96.0 32.9,91.8 61.9,85.3 90.8,80.5 119.8,76.3 148.7,67.0 177.6,62.2 206.6,54.6 235.5,48.5 264.5,46.5 293.4,37.8 322.4,33.0 351.3,28.2 380.2,17.5 409.2,11.0 438.1,6.8 467.1,4.0 496.0,4.0" fill="none" stroke="#3fb950" stroke-width="2" stroke-linejoin="round" stroke-linecap="round"/><circle cx="496.0" cy="4.0" r="3" fill="#3fb950"/></svg>