<svg xmlns="http://www.w3.org/2000/svg" width="500" height="100" viewBox="0 0 500 100"><defs><linearGradient id="g" x1="0" y1="0" x2="0" y2="1"><stop offset="0%" stop-color="#3fb950" stop-opacity="0.25"/><stop offset="100%" stop-color="#3fb950" stop-opacity="0.0"/></linearGradient></defs><rect width="500" height="100" fill="#0d1117" rx="4"/><polygon points="4.0,96.0 12.3,93.7 20.7,92.1 29.0,91.1 37.4,89.6 45.7,88.6 54.0,87.6 62.4,84.2 70.7,80.9 79.1,78.9 87.4,75.7 95.7,74.2 104.1,73.4 112.4,71.3 120.7,68.2 129.1,66.8 137.4,65.5 145.8,62.9 154.1,62.9 162.4,60.7 170.8,60.0 179.1,58.7 187.5,57.7 195.8,56.5 204.1,54.1 212.5,53.1 220.8,52.4 229.2,50.7 237.5,48.0 245.8,46.5 254.2,43.7 262.5,42.3 270.8,41.9 279.2,40.0 287.5,39.5 295.9,37.8 304.2,36.2 312.5,32.4 320.9,31.8 329.2,29.9 337.6,28.6 345.9,27.2 354.2,25.8 362.6,24.3 370.9,23.1 379.3,21.4 387.6,18.7 395.9,17.3 404.3,16.3 412.6,15.1 420.9,13.4 429.3,11.6 437.6,11.0 446.0,9.9 454.3,9.2 462.6,8.2 471.0,6.6 479.3,6.3 487.7,5.1 496.0,4.0 496.0,96 4.0,96" fill="url(#g)"/><polyline points="4.0,96.0 12.3,93.7 20.7,92.1 29.0,91.1 37.4,89.6 45.7,88.6 54.0,87.6 62.4,84.2 70.7,80.9 79.1,78.9 87.4,75.7 95.7,74.2 104.1,73.4 112.4,71.3 120.7,68.2 129.1,66.8 137.4,65.5 145.8,62.9 154.1,62.9 162.4,60.7 170.8,60.0 179.1,58.7 187.5,57.7 195.8,56.5 204.1,54.1 212.5,53.1 220.8,52.4 229.2,50.7 237.5,48.0 245.8,46.5 254.2,43.7 262.5,42.3 270.8,41.9 279.2,40.0 287.5,39.5 295.9,37.8 304.2,36.2 312.5,32.4 320.9,31.8 329.2,29.9 337.6,28.6 345.9,27.2 354.2,25.8 362.6,24.3 370.9,23.1 379.3,21.4 387.6,18.7 395.9,17.3 404.3,16.3 412.6,15.1 420.9,13.4 429.3,11.6 437.6,11.0 446.0,9.9 454.3,9.2 462.6,8.2 471.0,6.6 479.3,6.3 487.7,5.1 496.0,4.0" fill="none" stroke="#3fb950" stroke-width="2" stroke-linejoin="round" stroke-linecap="round"/><circle cx="496.0" cy="4.0" r="3" fill="#3fb950"/></svg>