<svg xmlns="http://www.w3.org/2000/svg" width="500" height="100" viewBox="0 0 500 100"><defs><linearGradient id="g" x1="0" y1="0" x2="0" y2="1"><stop offset="0%" stop-color="#3fb950" stop-opacity="0.25"/><stop offset="100%" stop-color="#3fb950" stop-opacity="0.0"/></linearGradient></defs><rect width="500" height="100" fill="#0d1117" rx="4"/><polygon points="4.0,96.0 25.4,93.1 46.8,88.7 68.2,85.4 89.6,82.5 111.0,76.2 132.3,72.9 153.7,67.7 175.1,63.5 196.5,62.1 217.9,56.2 239.3,52.9 260.7,49.6 282.1,42.3 303.5,37.9 324.9,35.0 346.3,33.1 367.7,30.2 389.0,28.3 410.4,26.5 431.8,20.0 453.2,13.8 474.6,10.0 496.0,4.0 496.0,96 4.0,96" fill="url(#g)"/><polyline points="4.0,96.0 25.4,93.1 46.8,88.7 68.2,85.4 89.6,82.5 111.0,76.2 132.3,72.9 153.7,67.7 175.1,63.5 196.5,62.1 217.9,56.2 239.3,52.9 260.7,49.6 282.1,42.3 303.5,37.9 324.9,35.0 346.3,33.1 367.7,30.2 389.0,28.3 410.4,26.5 431.8,20.0 453.2,13.8 474.6,10.0 496.0,4.0" fill="none" stroke="#3fb950" stroke-width="2" stroke-linejoin="round" stroke-linecap="round"/><circle cx="496.0" cy="4.0" r="3" fill="#3fb950"/></svg>