<svg xmlns="http://www.w3.org/2000/svg" width="500" height="100" viewBox="0 0 500 100"><defs><linearGradient id="g" x1="0" y1="0" x2="0" y2="1"><stop offset="0%" stop-color="#3fb950" stop-opacity="0.25"/><stop offset="100%" stop-color="#3fb950" stop-opacity="0.0"/></linearGradient></defs><rect width="500" height="100" fill="#0d1117" rx="4"/><polygon points="4.0,96.0 23.7,93.2 43.4,89.0 63.0,85.9 82.7,83.1 102.4,77.1 122.1,74.0 141.8,69.0 161.4,65.0 181.1,63.7 200.8,58.0 220.5,54.9 240.2,51.7 259.8,44.8 279.5,40.5 299.2,37.8 318.9,36.0 338.6,33.2 358.2,31.4 377.9,29.7 397.6,23.5 417.3,17.6 437.0,13.9 456.6,8.2 476.3,5.5 496.0,4.0 496.0,96 4.0,96" fill="url(#g)"/><polyline points="4.0,96.0 23.7,93.2 43.4,89.0 63.0,85.9 82.7,83.1 102.4,77.1 122.1,74.0 141.8,69.0 161.4,65.0 181.1,63.7 200.8,58.0 220.5,54.9 240.2,51.7 259.8,44.8 279.5,40.5 299.2,37.8 318.9,36.0 338.6,33.2 358.2,31.4 377.9,29.7 397.6,23.5 417.3,17.6 437.0,13.9 456.6,8.2 476.3,5.5 496.0,4.0" fill="none" stroke="#3fb950" stroke-width="2" stroke-linejoin="round" stroke-linecap="round"/><circle cx="496.0" cy="4.0" r="3" fill="#3fb950"/></svg>