<svg xmlns="http://www.w3.org/2000/svg" width="500" height="100" viewBox="0 0 500 100"><defs><linearGradient id="g" x1="0" y1="0" x2="0" y2="1"><stop offset="0%" stop-color="#3fb950" stop-opacity="0.25"/><stop offset="100%" stop-color="#3fb950" stop-opacity="0.0"/></linearGradient></defs><rect width="500" height="100" fill="#0d1117" rx="4"/><polygon points="4.0,96.0 45.0,90.1 86.0,80.9 127.0,74.2 168.0,68.2 209.0,55.2 250.0,48.4 291.0,37.7 332.0,29.0 373.0,26.2 414.0,13.9 455.0,7.2 496.0,4.0 496.0,96 4.0,96" fill="url(#g)"/><polyline points="4.0,96.0 45.0,90.1 86.0,80.9 127.0,74.2 168.0,68.2 209.0,55.2 250.0,48.4 291.0,37.7 332.0,29.0 373.0,26.2 414.0,13.9 455.0,7.2 496.0,4.0" fill="none" stroke="#3fb950" stroke-width="2" stroke-linejoin="round" stroke-linecap="round"/><circle cx="496.0" cy="4.0" r="3" fill="#3fb950"/></svg>