<svg xmlns="http://www.w3.org/2000/svg" width="500" height="100" viewBox="0 0 500 100"><defs><linearGradient id="g" x1="0" y1="0" x2="0" y2="1"><stop offset="0%" stop-color="#3fb950" stop-opacity="0.25"/><stop offset="100%" stop-color="#3fb950" stop-opacity="0.0"/></linearGradient></defs><rect width="500" height="100" fill="#0d1117" rx="4"/><polygon points="4.0,96.0 31.3,92.0 58.7,85.8 86.0,81.2 113.3,77.2 140.7,68.3 168.0,63.7 195.3,56.5 222.7,50.5 250.0,48.7 277.3,40.3 304.7,35.7 332.0,31.2 359.3,20.9 386.7,14.8 414.0,10.7 441.3,8.0 468.7,4.0 496.0,4.0 496.0,96 4.0,96" fill="url(#g)"/><polyline points="4.0,96.0 31.3,92.0 58.7,85.8 86.0,81.2 113.3,77.2 140.7,68.3 168.0,63.7 195.3,56.5 222.7,50.5 250.0,48.7 277.3,40.3 304.7,35.7 332.0,31.2 359.3,20.9 386.7,14.8 414.0,10.7 441.3,8.0 468.7,4.0 496.0,4.0" fill="none" stroke="#3fb950" stroke-width="2" stroke-linejoin="round" stroke-linecap="round"/><circle cx="496.0" cy="4.0" r="3" fill="#3fb950"/></svg>