<svg xmlns="http://www.w3.org/2000/svg" width="500" height="100" viewBox="0 0 500 100"><defs><linearGradient id="g" x1="0" y1="0" x2="0" y2="1"><stop offset="0%" stop-color="#3fb950" stop-opacity="0.25"/><stop offset="100%" stop-color="#3fb950" stop-opacity="0.0"/></linearGradient></defs><rect width="500" height="100" fill="#0d1117" rx="4"/><polygon points="4.0,96.0 41.8,91.0 79.7,83.3 117.5,77.7 155.4,72.7 193.2,61.7 231.1,56.0 268.9,47.0 306.8,39.7 344.6,37.3 382.5,27.0 420.3,21.3 458.2,15.7 496.0,4.0 496.0,96 4.0,96" fill="url(#g)"/><polyline points="4.0,96.0 41.8,91.0 79.7,83.3 117.5,77.7 155.4,72.7 193.2,61.7 231.1,56.0 268.9,47.0 306.8,39.7 344.6,37.3 382.5,27.0 420.3,21.3 458.2,15.7 496.0,4.0" fill="none" stroke="#3fb950" stroke-width="2" stroke-linejoin="round" stroke-linecap="round"/><circle cx="496.0" cy="4.0" r="3" fill="#3fb950"/></svg>