<svg xmlns="http://www.w3.org/2000/svg" width="500" height="100" viewBox="0 0 500 100"><defs><linearGradient id="g" x1="0" y1="0" x2="0" y2="1"><stop offset="0%" stop-color="#3fb950" stop-opacity="0.25"/><stop offset="100%" stop-color="#3fb950" stop-opacity="0.0"/></linearGradient></defs><rect width="500" height="100" fill="#0d1117" rx="4"/><polygon points="4.0,96.0 23.7,93.3 43.4,89.1 63.0,86.0 82.7,83.3 102.4,77.3 122.1,74.2 141.8,69.3 161.4,65.3 181.1,64.0 200.8,58.4 220.5,55.3 240.2,52.2 259.8,45.3 279.5,41.1 299.2,38.4 318.9,36.5 338.6,33.8 358.2,32.0 377.9,30.4 397.6,24.2 417.3,18.4 437.0,14.7 456.6,9.1 476.3,6.4 496.0,4.0 496.0,96 4.0,96" fill="url(#g)"/><polyline points="4.0,96.0 23.7,93.3 43.4,89.1 63.0,86.0 82.7,83.3 102.4,77.3 122.1,74.2 141.8,69.3 161.4,65.3 181.1,64.0 200.8,58.4 220.5,55.3 240.2,52.2 259.8,45.3 279.5,41.1 299.2,38.4 318.9,36.5 338.6,33.8 358.2,32.0 377.9,30.4 397.6,24.2 417.3,18.4 437.0,14.7 456.6,9.1 476.3,6.4 496.0,4.0" fill="none" stroke="#3fb950" stroke-width="2" stroke-linejoin="round" stroke-linecap="round"/><circle cx="496.0" cy="4.0" r="3" fill="#3fb950"/></svg>